<?xml version="1.0" encoding="UTF-8"?> <svg xmlns="http://www.w3.org/2000/svg" xmlns:xlink="http://www.w3.org/1999/xlink" version="1.1" width="512" height="512" x="0" y="0" viewBox="0 0 64 64" style="enable-background:new 0 0 512 512" xml:space="preserve" class=""><g><g fill="#000"><path d="M13 11a1 1 0 1 1-2 0 1 1 0 0 1 2 0zM16 12a1 1 0 1 0 0-2 1 1 0 0 0 0 2zM21 11a1 1 0 1 1-2 0 1 1 0 0 1 2 0z" fill="#e63329" opacity="1" data-original="#000000" class=""></path><g fill-rule="evenodd" clip-rule="evenodd"><path d="M14 22a1 1 0 0 1 1-1h12a1 1 0 0 1 1 1v5a1 1 0 0 1-1 1H15a1 1 0 0 1-1-1zm2 1v3h10v-3zM15 30a1 1 0 0 0-1 1v4a1 1 0 0 0 1 1h4a1 1 0 0 0 1-1v-4a1 1 0 0 0-1-1zm1 4v-2h2v2zM22 31a1 1 0 0 1 1-1h4a1 1 0 0 1 1 1v4a1 1 0 0 1-1 1h-4a1 1 0 0 1-1-1zm2 1v2h2v-2z" fill="#e63329" opacity="1" data-original="#000000" class=""></path></g><path d="M15 38a1 1 0 1 0 0 2h12a1 1 0 1 0 0-2zM15 41a1 1 0 1 0 0 2h12a1 1 0 1 0 0-2z" fill="#e63329" opacity="1" data-original="#000000" class=""></path><path fill-rule="evenodd" d="M11 18a1 1 0 0 0-1 1v26a1 1 0 0 0 1 1h20a1 1 0 0 0 1-1V19a1 1 0 0 0-1-1zm1 26V20h18v24zM38.968 32.036c-1.048.091-2.02.572-2.786 1.338a4.496 4.496 0 0 0-1.212 4.153c-.095.064-.21.137-.345.223l-.025.016c-.214.136-.516.328-.734.525-.102.092-.3.283-.412.563a1.141 1.141 0 0 0 .253 1.237c.237.238.536.334.676.375.182.054.382.09.57.118.381.055.833.088 1.254.113.207.012.398.021.577.03h.001c.213.011.41.021.603.034.167.01.301.021.401.033.055.006.085.011.097.013a4.5 4.5 0 0 0 4.66-1.069c.766-.766 1.247-1.738 1.338-2.786l9.38-10.63a2.597 2.597 0 0 0-3.666-3.665zm.01 2.013c-.488.08-.967.325-1.382.74a2.5 2.5 0 0 0-.587 2.608c.167.47-.012.867-.137 1.064a1.694 1.694 0 0 1-.204.258l.192.01h.001c.234.012.465.023.655.036.179.011.353.025.505.042.127.015.325.042.502.105a2.5 2.5 0 0 0 2.609-.588c.415-.415.66-.894.739-1.382zm-4.062 4.487.018.007a.09.09 0 0 1-.018-.007zm.287 1.242a.083.083 0 0 1-.01.01l.01-.01zm15.719-15.621a.597.597 0 0 1 .842.842l-8.91 10.098-2.03-2.03z" clip-rule="evenodd" fill="#e63329" opacity="1" data-original="#000000" class=""></path><path fill-rule="evenodd" d="M6 10v36a4 4 0 0 0 4 4h17v2h-5a3 3 0 0 0-3 3v2a1 1 0 0 0 1 1h24a1 1 0 0 0 1-1v-2a3 3 0 0 0-3-3h-5v-2h17a4 4 0 0 0 4-4V10a4 4 0 0 0-4-4H10a4 4 0 0 0-4 4zm48-2H10a2 2 0 0 0-2 2v4h48v-4a2 2 0 0 0-2-2zM35 50v3a1 1 0 0 0 1 1h6a1 1 0 0 1 1 1v1H21v-1a1 1 0 0 1 1-1h6a1 1 0 0 0 1-1v-3zm19-2a2 2 0 0 0 2-2V16H8v30a2 2 0 0 0 2 2z" clip-rule="evenodd" fill="#e63329" opacity="1" data-original="#000000" class=""></path></g></g></svg> 